<svg width="32" height="32" viewBox="0 0 32 32" fill="none" xmlns="http://www.w3.org/2000/svg">
<path d="M32 18.9999C32 18.1986 31.6813 17.4519 31.132 16.9013C31.7547 16.2199 32.072 15.3066 31.9853 14.3559C31.8293 12.6613 30.3026 11.3333 28.508 11.3333H20.272C20.68 10.0946 21.3333 7.82394 21.3333 5.99994C21.3333 3.10794 18.876 0.666626 17.3333 0.666626C15.9493 0.666626 14.9586 1.44663 14.9173 1.47863C14.7586 1.60531 14.6666 1.79731 14.6666 1.99994V6.52125L10.8253 14.8399L10.6666 14.9213V14.6666C10.6666 14.2986 10.3679 13.9999 9.99994 13.9999H3.33331C1.49469 13.9999 0 15.4946 0 17.3333V27.9999C0 29.8386 1.49469 31.3333 3.33331 31.3333H7.33331C8.77462 31.3333 10.0066 30.4133 10.4706 29.1293C11.58 29.6999 13.0733 29.9999 14 29.9999H26.2387C27.6907 29.9999 28.9614 29.0213 29.26 27.6719C29.4133 26.9759 29.324 26.2759 29.02 25.6679C30.004 25.1733 30.6667 24.1559 30.6667 22.9999C30.6667 22.5279 30.5587 22.0759 30.3547 21.6679C31.3387 21.1719 32 20.1559 32 18.9999ZM29.188 20.6453C28.9307 20.6759 28.7133 20.8506 28.6307 21.0973C28.5494 21.3439 28.6174 21.6146 28.8067 21.7933C29.1454 22.1119 29.3334 22.5413 29.3334 22.9999C29.3334 23.8413 28.6974 24.5479 27.8561 24.6453C27.5987 24.6759 27.3814 24.8506 27.2987 25.0973C27.2174 25.3439 27.2854 25.6146 27.4748 25.7933C27.9134 26.2066 28.0894 26.7866 27.9574 27.3839C27.7934 28.1279 27.0708 28.6666 26.2388 28.6666H14C12.9173 28.6666 11.1013 28.1586 10.472 27.5279C10.2813 27.3386 9.99331 27.2826 9.74531 27.3839C9.496 27.4866 9.33331 27.7306 9.33331 27.9999C9.33331 29.1026 8.436 29.9999 7.33331 29.9999H3.33331C2.23063 29.9999 1.33331 29.1026 1.33331 27.9999V17.3333C1.33331 16.2306 2.23063 15.3333 3.33331 15.3333H9.33331V15.9999C9.33331 16.2306 9.45331 16.4453 9.65063 16.5679C9.84531 16.6853 10.0906 16.6973 10.2986 16.5959L11.6319 15.9293C11.7666 15.8626 11.8746 15.7506 11.9386 15.6133L15.9386 6.94656C15.9786 6.85856 15.9999 6.76256 15.9999 6.66656V2.36125C16.2773 2.20794 16.7587 1.99994 17.3333 1.99994C18.064 1.99994 20 3.81594 20 5.99994C20 8.34663 18.7227 11.7293 18.7107 11.7626C18.6334 11.9666 18.66 12.1973 18.784 12.3786C18.9093 12.5586 19.1147 12.6666 19.3333 12.6666H28.508C29.62 12.6666 30.564 13.4626 30.6573 14.4786C30.728 15.2386 30.3626 15.9613 29.708 16.3653C29.504 16.4906 29.3827 16.7173 29.392 16.9586C29.4013 17.1999 29.54 17.4159 29.7533 17.5266C30.3173 17.8133 30.6666 18.3786 30.6666 18.9999C30.6667 19.8413 30.0307 20.5479 29.188 20.6453Z" fill="#DDDDDD"/>
<path d="M10 15.3334C9.632 15.3334 9.33331 15.6321 9.33331 16.0001V28.0001C9.33331 28.3681 9.632 28.6668 10 28.6668C10.368 28.6668 10.6667 28.3681 10.6667 28.0001V16.0001C10.6667 15.6321 10.368 15.3334 10 15.3334Z" fill="#DDDDDD"/>
</svg>
