<svg width="28" height="30" viewBox="0 0 28 30" fill="none" xmlns="http://www.w3.org/2000/svg">
<path d="M19.4992 3.64429C18.8665 3.3679 18.1296 3.65671 17.8533 4.28935C17.5769 4.92199 17.8657 5.65887 18.4983 5.93526C22.5655 7.71207 25.25 11.7347 25.25 16.2499C25.25 22.4629 20.2125 27.5 13.9999 27.5C7.78647 27.5 2.74983 22.4633 2.74983 16.2499C2.74983 11.7357 5.43344 7.71307 9.49941 5.93509C10.1319 5.65852 10.4205 4.92153 10.1439 4.289C9.86733 3.65648 9.13033 3.3679 8.4978 3.64452C3.52966 5.8169 0.249847 10.7333 0.249847 16.2498C0.249847 23.844 6.40582 30 14 30C21.5933 30 27.7501 23.8436 27.7501 16.2498C27.7501 10.732 24.4689 5.81538 19.4992 3.64429Z" fill="#3BAFDA"/>
<path d="M13.9995 13.7501C14.6898 13.7501 15.2495 13.1905 15.2495 12.5001V1.25005C15.2495 0.559633 14.6898 0 13.9995 0C13.3091 0 12.7495 0.559633 12.7495 1.24999V12.5001C12.7495 13.1904 13.3091 13.7501 13.9995 13.7501Z" fill="#3BAFDA"/>
</svg>
