<svg width="35" height="35" viewBox="0 0 35 35" fill="none" xmlns="http://www.w3.org/2000/svg">
<g clip-path="url(#clip0)">
<path d="M24.2186 20.769C28.42 14.8363 27.0149 6.62124 21.0822 2.42087C15.1495 -1.7795 6.93441 -0.375364 2.73404 5.55835C-1.46633 11.4911 -0.0621922 19.7051 5.87152 23.9055C10.106 26.9034 15.7045 27.1343 20.1708 24.4966L29.8753 34.1429C30.9232 35.246 32.6666 35.2901 33.7696 34.2423C34.8726 33.1955 34.9168 31.4521 33.87 30.3491C33.8368 30.3139 33.8047 30.2818 33.7696 30.2487L24.2186 20.769ZM13.4683 21.6683C8.78016 21.6693 4.97925 17.8714 4.97624 13.1832C4.97524 8.49509 8.77313 4.69418 13.4623 4.69218C18.1444 4.69017 21.9433 8.48204 21.9524 13.1642C21.9604 17.8533 18.1645 21.6603 13.4743 21.6683C13.4723 21.6683 13.4713 21.6683 13.4683 21.6683Z" fill="#C3C3C3"/>
</g>
<defs>
<clipPath id="clip0">
<rect width="35" height="35" fill="white"/>
</clipPath>
</defs>
</svg>
