<svg width="41" height="35" viewBox="0 0 41 35" fill="none" xmlns="http://www.w3.org/2000/svg">
<path d="M38.6953 14.2848L38.7593 14.2988H11.324L19.9487 5.65517C20.371 5.23317 20.6027 4.66151 20.6027 4.06151C20.6027 3.46151 20.371 2.89384 19.9487 2.47084L18.6067 1.12817C18.1847 0.706173 17.6223 0.472839 17.0227 0.472839C16.4227 0.472839 15.86 0.704506 15.438 1.12651L0.653676 15.9095C0.230009 16.3332 -0.00165774 16.8975 8.93046e-06 17.4978C-0.00165774 18.1015 0.230009 18.6662 0.653676 19.0892L15.438 33.8735C15.86 34.2952 16.4223 34.5272 17.0227 34.5272C17.6223 34.5272 18.1847 34.2948 18.6067 33.8735L19.9487 32.5308C20.371 32.1095 20.6027 31.5468 20.6027 30.9468C20.6027 30.3472 20.371 29.8142 19.9487 29.3925L11.2267 20.7005H38.726C39.9617 20.7005 41 19.6355 41 18.4005V16.5015C41 15.2665 39.931 14.2848 38.6953 14.2848Z" fill="#3BAFDA"/>
</svg>
