<svg width="32" height="32" viewBox="0 0 32 32" fill="none" xmlns="http://www.w3.org/2000/svg">
<rect width="32" height="32" rx="5" fill="#323B44"/>
<g clip-path="url(#clip0)">
<path d="M29.5347 20.1022C29.0945 20.1022 28.7378 20.459 28.7378 20.8992V27.9754C28.7362 29.2953 27.6669 30.365 26.3469 30.3663H3.98483C2.66485 30.365 1.59549 29.2953 1.59393 27.9754V7.20724C1.59549 5.88758 2.66485 4.8179 3.98483 4.81634H11.061C11.5012 4.81634 11.858 4.45958 11.858 4.01938C11.858 3.57949 11.5012 3.22241 11.061 3.22241H3.98483C1.78508 3.2249 0.00249052 5.00749 0 7.20724V27.9757C0.00249052 30.1754 1.78508 31.958 3.98483 31.9605H26.3469C28.5466 31.958 30.3292 30.1754 30.3317 27.9757V20.8992C30.3317 20.459 29.9749 20.1022 29.5347 20.1022Z" fill="white"/>
<path d="M30.016 1.17173C28.6154 -0.228874 26.3447 -0.228874 24.9441 1.17173L10.7257 15.3901C10.6282 15.4875 10.5579 15.6083 10.5212 15.741L8.6514 22.4912C8.5745 22.7679 8.65264 23.0643 8.85562 23.2676C9.05891 23.4706 9.35528 23.5487 9.63204 23.4721L16.3823 21.6021C16.5149 21.5653 16.6357 21.495 16.7331 21.3975L30.9512 7.17886C32.3496 5.77732 32.3496 3.50846 30.9512 2.10692L30.016 1.17173ZM12.4622 15.9081L24.0988 4.27118L27.8517 8.02408L16.2148 19.661L12.4622 15.9081ZM11.7126 17.4124L14.7108 20.411L10.5635 21.56L11.7126 17.4124ZM29.8242 6.0519L28.979 6.89712L25.2258 3.14391L26.0713 2.29869C26.8493 1.52071 28.1108 1.52071 28.8887 2.29869L29.8242 3.23388C30.601 4.01279 30.601 5.2733 29.8242 6.0519Z" fill="white"/>
</g>
<defs>
<clipPath id="clip0">
<rect width="32" height="32" fill="white"/>
</clipPath>
</defs>
</svg>
