<svg width="31" height="31" viewBox="0 0 31 31" fill="none" xmlns="http://www.w3.org/2000/svg">
<path d="M15.5 31C17.5063 31 19.1328 29.3735 19.1328 27.3672C19.1328 25.3608 17.5063 23.7344 15.5 23.7344C13.4937 23.7344 11.8672 25.3608 11.8672 27.3672C11.8672 29.3735 13.4937 31 15.5 31Z" fill="#3BAFDA"/>
<path d="M15.5 0C10.2918 0 6.05469 4.23713 6.05469 9.44531V10.3535H13.3203V9.44531C13.3203 8.2434 14.2981 7.26562 15.5 7.26562C16.7019 7.26562 17.6797 8.2434 17.6797 9.44531C17.6797 10.0858 17.3986 10.692 16.9083 11.1086L11.8672 15.3945V21.918H19.1328V18.7539L21.6138 16.6446C23.731 14.8455 24.9453 12.2216 24.9453 9.44531C24.9453 4.23713 20.7082 0 15.5 0V0Z" fill="#3BAFDA"/>
</svg>
