<svg width="37" height="41" viewBox="0 0 37 41" fill="none" xmlns="http://www.w3.org/2000/svg">
<g clip-path="url(#clip0)">
<path d="M33.9167 0H15.4167C13.7138 0 12.3333 1.52973 12.3333 3.41669V9.39589C12.3333 9.86763 12.6785 10.2501 13.1042 10.2501H14.6458C15.0715 10.2501 15.4167 9.86763 15.4167 9.39589V3.41669H33.9167V37.5834H15.4167V31.6042C15.4167 31.1325 15.0715 30.75 14.6458 30.75H13.1042C12.6785 30.75 12.3333 31.1325 12.3333 31.6042V37.5834C12.3333 39.4703 13.7137 41.0001 15.4167 41.0001H33.9167C35.6196 41 37 39.4703 37 37.5833V3.41669C37 1.52973 35.6196 0 33.9167 0Z" fill="#3BAFDA"/>
<path d="M17.2135 27.5527C17.0509 27.7146 16.9584 27.9456 16.9584 28.1875V29.8958C16.9584 30.2345 17.139 30.5415 17.4191 30.6774C17.5184 30.7266 17.6246 30.7499 17.7292 30.7499C17.9182 30.7499 18.1049 30.6723 18.2501 30.5255L27.5001 21.1297C27.6597 20.968 27.75 20.7394 27.75 20.5C27.75 20.2606 27.6597 20.032 27.5001 19.8702L18.2501 10.4744C18.0243 10.2466 17.6968 10.1841 17.4191 10.3225C17.139 10.4585 16.9584 10.7655 16.9584 11.1041V12.8125C16.9584 13.0544 17.0509 13.2854 17.2135 13.4473L22.5721 18.7917H0.770857C0.344779 18.7917 0 19.1737 0 19.6458V21.3541C0 21.8262 0.344779 22.2083 0.770857 22.2083H22.5721L17.2135 27.5527Z" fill="#3BAFDA"/>
</g>
<defs>
<clipPath id="clip0">
<rect width="37" height="41" fill="white"/>
</clipPath>
</defs>
</svg>
