<svg width="31" height="31" viewBox="0 0 31 31" fill="none" xmlns="http://www.w3.org/2000/svg">
<path d="M15.5 0C14.9984 0 14.5918 0.406633 14.5918 0.908203V6.74492C14.5918 7.24649 14.9984 7.65312 15.5 7.65312C16.0016 7.65312 16.4082 7.24649 16.4082 6.74492V0.908203C16.4082 0.406633 16.0016 0 15.5 0Z" fill="#3BAFDA"/>
<path d="M15.5 23.3469C14.9984 23.3469 14.5918 23.7536 14.5918 24.2551V30.0918C14.5918 30.5934 14.9984 31 15.5 31C16.0016 31 16.4082 30.5934 16.4082 30.0918V24.2551C16.4082 23.7535 16.0016 23.3469 15.5 23.3469Z" fill="#3BAFDA"/>
<path d="M11.9091 7.46385L8.99073 2.4091C8.73995 1.97468 8.18449 1.82585 7.75013 2.0767C7.31576 2.32748 7.16694 2.88294 7.41772 3.3173L10.3361 8.37206C10.5043 8.66347 10.8096 8.82628 11.1234 8.82628C11.2775 8.82628 11.4337 8.78705 11.5767 8.70446C12.0111 8.45367 12.1599 7.89822 11.9091 7.46385Z" fill="#3BAFDA"/>
<path d="M23.5825 27.6827L20.6642 22.6281C20.4134 22.1937 19.858 22.0448 19.4236 22.2957C18.9892 22.5465 18.8404 23.1019 19.0912 23.5363L22.0095 28.5909C22.1777 28.8823 22.483 29.0451 22.7968 29.0451C22.9509 29.0451 23.1071 29.0059 23.2501 28.9233C23.6845 28.6725 23.8333 28.1171 23.5825 27.6827Z" fill="#3BAFDA"/>
<path d="M8.37208 10.336L3.31726 7.41755C2.88278 7.16664 2.32744 7.31552 2.07666 7.74995C1.82587 8.18431 1.9747 8.73977 2.40906 8.99055L7.46388 11.909C7.60689 11.9916 7.76304 12.0309 7.91713 12.0309C8.231 12.0309 8.53628 11.868 8.70448 11.5766C8.95527 11.1422 8.80644 10.5867 8.37208 10.336Z" fill="#3BAFDA"/>
<path d="M28.5909 22.0094L23.5363 19.0911C23.1018 18.8403 22.5464 18.9891 22.2957 19.4235C22.0449 19.8579 22.1937 20.4134 22.6281 20.6641L27.6827 23.5824C27.8258 23.665 27.9819 23.7042 28.136 23.7042C28.4499 23.7042 28.7552 23.5414 28.9233 23.25C29.1741 22.8155 29.0253 22.2601 28.5909 22.0094Z" fill="#3BAFDA"/>
<path d="M6.74498 14.592H0.908203C0.406633 14.592 0 14.9987 0 15.5002C0 16.0018 0.406633 16.4085 0.908203 16.4085H6.74498C7.24655 16.4085 7.65319 16.0018 7.65319 15.5002C7.65319 14.9987 7.24655 14.592 6.74498 14.592Z" fill="#3BAFDA"/>
<path d="M30.0917 14.592H24.2551C23.7536 14.592 23.3469 14.9987 23.3469 15.5002C23.3469 16.0018 23.7536 16.4085 24.2551 16.4085H30.0917C30.5933 16.4085 30.9999 16.0018 30.9999 15.5002C30.9999 14.9987 30.5933 14.592 30.0917 14.592Z" fill="#3BAFDA"/>
<path d="M8.70448 19.4235C8.4537 18.9891 7.89836 18.8403 7.46388 19.0911L2.40906 22.0095C1.9747 22.2602 1.82587 22.8157 2.07666 23.2501C2.24486 23.5415 2.55014 23.7043 2.86401 23.7043C3.0181 23.7043 3.17425 23.6651 3.31726 23.5825L8.37208 20.6641C8.80645 20.4133 8.95527 19.8579 8.70448 19.4235Z" fill="#3BAFDA"/>
<path d="M28.9233 7.75014C28.6726 7.31572 28.1172 7.16695 27.6827 7.41774L22.6281 10.3361C22.1937 10.5868 22.0449 11.1423 22.2957 11.5766C22.4639 11.8681 22.7691 12.0309 23.083 12.0309C23.237 12.0309 23.3932 11.9917 23.5363 11.9091L28.5909 8.99075C29.0253 8.73996 29.1741 8.1845 28.9233 7.75014Z" fill="#3BAFDA"/>
<path d="M11.5767 22.2957C11.1423 22.0448 10.5868 22.1937 10.3361 22.6281L7.41772 27.6829C7.16694 28.1172 7.31576 28.6727 7.75013 28.9235C7.89314 29.0061 8.04929 29.0453 8.20338 29.0453C8.51725 29.0453 8.82259 28.8824 8.99073 28.5911L11.9091 23.5363C12.1599 23.102 12.0111 22.5465 11.5767 22.2957Z" fill="#3BAFDA"/>
<path d="M23.25 2.07673C22.8156 1.82582 22.2601 1.9747 22.0094 2.40913L19.0911 7.46376C18.8403 7.89813 18.9891 8.45358 19.4235 8.70437C19.5665 8.78696 19.7227 8.82619 19.8768 8.82619C20.1906 8.82619 20.4959 8.66332 20.6641 8.37197L23.5824 3.31733C23.8332 2.88297 23.6844 2.32751 23.25 2.07673Z" fill="#3BAFDA"/>
</svg>
